<svg width="552" height="444" viewBox="0 0 552 444" fill="none" xmlns="http://www.w3.org/2000/svg">
<g clip-path="url(#clip0_304_3)">
<path d="M200.865 336.793C199.194 332.792 199.01 328.326 200.347 324.202C201.684 320.078 204.454 316.567 208.156 314.305C209.389 313.556 208.262 311.616 207.023 312.368C202.777 314.901 199.608 318.901 198.116 323.61C196.624 328.32 196.912 333.413 198.927 337.924C199.493 339.247 201.427 338.106 200.865 336.793Z" fill="#3F3D56"/>
<path d="M201.507 339.808C198.479 334.45 199.192 328.038 200.281 322.244C201.418 316.195 202.908 310.053 201.619 303.901C201.034 300.914 199.65 298.142 197.613 295.878C196.632 294.814 195.048 296.403 196.026 297.464C199.834 301.595 200.275 307.588 199.658 312.911C198.929 319.188 196.864 325.306 197.121 331.685C197.188 334.921 198.027 338.094 199.569 340.94C199.724 341.186 199.969 341.362 200.252 341.431C200.535 341.5 200.834 341.457 201.086 341.31C201.337 341.163 201.522 340.924 201.6 340.644C201.679 340.364 201.646 340.064 201.507 339.808Z" fill="#3F3D56"/>
<path d="M217.757 356.919H179.593C178.701 356.918 177.845 356.563 177.213 355.933C176.582 355.302 176.227 354.447 176.226 353.556V342.358C176.229 339.481 177.375 336.722 179.412 334.687C181.449 332.653 184.211 331.508 187.091 331.505H192.689C192.986 331.505 193.272 331.387 193.482 331.176C193.693 330.966 193.811 330.681 193.811 330.384V325.152C193.812 324.656 194.009 324.181 194.36 323.831C194.711 323.48 195.186 323.283 195.682 323.283H201.669C202.165 323.283 202.64 323.48 202.991 323.831C203.341 324.181 203.539 324.656 203.539 325.152V330.384C203.54 330.681 203.658 330.966 203.868 331.176C204.079 331.387 204.364 331.505 204.662 331.505H210.259C213.14 331.508 215.902 332.653 217.938 334.687C219.975 336.722 221.121 339.481 221.125 342.358V353.556C221.124 354.447 220.768 355.302 220.137 355.933C219.506 356.564 218.65 356.918 217.757 356.919Z" fill="#CCCCCC"/>
<path d="M199.262 289.676C200.065 293.936 199.071 297.699 197.04 298.081C195.009 298.463 192.712 295.32 191.908 291.06C191.105 286.8 193.576 279.717 193.576 279.717C193.576 279.717 198.458 285.416 199.262 289.676Z" fill="#6C63FF"/>
<path d="M214.672 309.493C212.128 313.005 208.708 314.87 207.034 313.659C205.36 312.449 206.066 308.622 208.611 305.11C211.155 301.599 218.004 298.522 218.004 298.522C218.004 298.522 217.217 305.982 214.672 309.493Z" fill="#6C63FF"/>
<path d="M130.524 67.7016C128.853 63.7008 128.669 59.235 130.006 55.1108C131.344 50.9867 134.113 47.4762 137.815 45.2137C139.048 44.465 137.921 42.5249 136.682 43.2774C132.436 45.8099 129.267 49.8097 127.775 54.5194C126.283 59.2291 126.571 64.3219 128.586 68.8334C129.152 70.1562 131.086 69.0151 130.524 67.7016Z" fill="#3F3D56"/>
<path d="M131.166 70.7175C128.139 65.3593 128.851 58.947 129.94 53.1527C131.077 47.1039 132.567 40.9623 131.278 34.8104C130.693 31.8235 129.309 29.0508 127.272 26.7872C126.292 25.7232 124.707 27.3121 125.685 28.3728C129.493 32.5041 129.934 38.4972 129.317 43.8197C128.588 50.0975 126.524 56.2148 126.78 62.594C126.847 65.8298 127.686 69.0028 129.228 71.8493C129.384 72.0953 129.629 72.2714 129.912 72.3404C130.195 72.4093 130.493 72.3658 130.745 72.219C130.996 72.0722 131.181 71.8335 131.259 71.5534C131.338 71.2733 131.305 70.9735 131.166 70.7175Z" fill="#3F3D56"/>
<path d="M147.416 87.8283H109.253C108.36 87.8273 107.504 87.4726 106.873 86.842C106.241 86.2114 105.886 85.3564 105.885 84.4646V73.2671C105.889 70.3897 107.034 67.6311 109.071 65.5965C111.108 63.5619 113.87 62.4174 116.75 62.4141H122.348C122.646 62.4138 122.931 62.2956 123.141 62.0854C123.352 61.8752 123.47 61.5902 123.47 61.2929V56.0606C123.471 55.5651 123.668 55.0902 124.019 54.7398C124.37 54.3895 124.845 54.1925 125.341 54.1919H131.328C131.824 54.1925 132.299 54.3895 132.65 54.7398C133.001 55.0902 133.198 55.5651 133.198 56.0606V61.2929C133.199 61.5902 133.317 61.8752 133.528 62.0854C133.738 62.2956 134.023 62.4138 134.321 62.4141H139.918C142.799 62.4174 145.561 63.5619 147.598 65.5965C149.635 67.6311 150.78 70.3897 150.784 73.2671V84.4646C150.783 85.3564 150.428 86.2114 149.796 86.842C149.165 87.4726 148.309 87.8273 147.416 87.8283Z" fill="#CCCCCC"/>
<path d="M128.921 20.5852C129.725 24.8448 128.73 28.6077 126.699 28.9899C124.668 29.3721 122.371 26.2289 121.567 21.9692C120.764 17.7096 123.235 10.6262 123.235 10.6262C123.235 10.6262 128.118 16.3255 128.921 20.5852Z" fill="#6C63FF"/>
<path d="M144.331 40.4025C141.787 43.9137 138.367 45.7789 136.693 44.5686C135.019 43.3582 135.725 39.5307 138.27 36.0195C140.814 32.5083 147.663 29.4315 147.663 29.4315C147.663 29.4315 146.876 36.8913 144.331 40.4025Z" fill="#6C63FF"/>
<path d="M54.6264 203.313H23.9458V214.525H54.6264V203.313Z" fill="#6C63FF"/>
<path d="M54.6264 239.939H23.9458V251.152H54.6264V239.939Z" fill="#6C63FF"/>
<path d="M241.703 443.253H12.7212C9.3485 443.249 6.11501 441.909 3.73014 439.527C1.34527 437.144 0.00378099 433.914 0 430.545V12.7071C0.00378099 9.3381 1.34527 6.10821 3.73014 3.72599C6.11501 1.34377 9.3485 0.00377679 12.7212 0H241.703C245.076 0.00379259 248.309 1.34379 250.694 3.726C253.079 6.10822 254.42 9.33811 254.424 12.7071V430.545C254.42 433.914 253.079 437.144 250.694 439.527C248.309 441.909 245.076 443.249 241.703 443.253ZM12.7212 1.49495C9.7453 1.49831 6.89224 2.68066 4.78795 4.78261C2.68366 6.88457 1.49998 9.73446 1.49661 12.7071V430.545C1.49998 433.518 2.68366 436.368 4.78795 438.47C6.89224 440.572 9.7453 441.754 12.7212 441.758H241.703C244.679 441.754 247.532 440.572 249.636 438.47C251.741 436.368 252.924 433.518 252.928 430.545V12.7071C252.924 9.73446 251.741 6.88457 249.636 4.78261C247.532 2.68066 244.679 1.49831 241.703 1.49495H12.7212Z" fill="#3F3D56"/>
<path d="M253.676 86.2979H0.748535V87.7929H253.676V86.2979Z" fill="#3F3D56"/>
<path d="M253.676 176.019H0.748535V177.514H253.676V176.019Z" fill="#3F3D56"/>
<path d="M253.676 265.739H0.748535V267.234H253.676V265.739Z" fill="#3F3D56"/>
<path d="M253.676 355.46H0.748535V356.955H253.676V355.46Z" fill="#3F3D56"/>
<path d="M52.3812 267.596H26.9388C25.9468 267.595 24.9958 267.201 24.2944 266.5C23.593 265.799 23.1984 264.849 23.1973 263.859V191.354C23.1984 190.363 23.593 189.413 24.2944 188.712C24.9958 188.011 25.9468 187.617 26.9388 187.616H52.3812C53.3732 187.617 54.3242 188.011 55.0256 188.712C55.727 189.413 56.1216 190.363 56.1228 191.354V263.859C56.1216 264.849 55.727 265.799 55.0256 266.5C54.3242 267.201 53.3732 267.595 52.3812 267.596ZM26.9388 189.111C26.3436 189.112 25.773 189.348 25.3521 189.769C24.9313 190.189 24.6945 190.759 24.6939 191.354V263.859C24.6945 264.453 24.9313 265.023 25.3521 265.443C25.773 265.864 26.3436 266.1 26.9388 266.101H52.3812C52.9764 266.1 53.547 265.864 53.9679 265.443C54.3887 265.023 54.6255 264.453 54.6261 263.859V191.354C54.6255 190.759 54.3887 190.189 53.9679 189.769C53.547 189.348 52.9764 189.112 52.3812 189.111H26.9388Z" fill="#3F3D56"/>
<path d="M101.77 203.313H71.0894V214.525H101.77V203.313Z" fill="#6C63FF"/>
<path d="M101.77 239.939H71.0894V251.152H101.77V239.939Z" fill="#6C63FF"/>
<path d="M99.5248 267.596H74.0824C73.0904 267.595 72.1394 267.201 71.438 266.5C70.7365 265.799 70.342 264.849 70.3408 263.859V191.354C70.342 190.363 70.7365 189.413 71.438 188.712C72.1394 188.011 73.0904 187.617 74.0824 187.616H99.5248C100.517 187.617 101.468 188.011 102.169 188.712C102.871 189.413 103.265 190.363 103.266 191.354V263.859C103.265 264.849 102.871 265.799 102.169 266.5C101.468 267.201 100.517 267.595 99.5248 267.596ZM74.0824 189.111C73.4872 189.112 72.9166 189.348 72.4957 189.769C72.0748 190.189 71.8381 190.759 71.8374 191.354V263.859C71.8381 264.453 72.0748 265.023 72.4957 265.443C72.9166 265.864 73.4872 266.1 74.0824 266.101H99.5248C100.12 266.1 100.691 265.864 101.111 265.443C101.532 265.023 101.769 264.453 101.77 263.859V191.354C101.769 190.759 101.532 190.189 101.111 189.769C100.691 189.348 100.12 189.112 99.5248 189.111H74.0824Z" fill="#3F3D56"/>
<path d="M176.6 112.869H145.92V124.081H176.6V112.869Z" fill="#6C63FF"/>
<path d="M176.6 149.495H145.92V160.707H176.6V149.495Z" fill="#6C63FF"/>
<path d="M174.355 177.151H148.913C147.921 177.15 146.97 176.756 146.269 176.056C145.567 175.355 145.173 174.405 145.171 173.414V100.909C145.173 99.9182 145.567 98.9683 146.269 98.2676C146.97 97.567 147.921 97.1728 148.913 97.1717H174.355C175.347 97.1728 176.298 97.567 177 98.2676C177.701 98.9683 178.096 99.9182 178.097 100.909V173.414C178.096 174.405 177.701 175.355 177 176.056C176.298 176.756 175.347 177.15 174.355 177.151ZM148.913 98.6666C148.318 98.6673 147.747 98.9038 147.326 99.3242C146.905 99.7446 146.669 100.315 146.668 100.909V173.414C146.669 174.009 146.905 174.579 147.326 174.999C147.747 175.419 148.318 175.656 148.913 175.657H174.355C174.951 175.656 175.521 175.419 175.942 174.999C176.363 174.579 176.6 174.009 176.6 173.414V100.909C176.6 100.315 176.363 99.7445 175.942 99.3241C175.521 98.9038 174.951 98.6673 174.355 98.6666H148.913Z" fill="#3F3D56"/>
<path d="M223.744 112.869H193.063V124.081H223.744V112.869Z" fill="#6C63FF"/>
<path d="M223.744 149.495H193.063V160.707H223.744V149.495Z" fill="#6C63FF"/>
<path d="M221.499 177.151H196.056C195.065 177.15 194.114 176.756 193.412 176.056C192.711 175.355 192.316 174.405 192.315 173.414V100.909C192.316 99.9182 192.711 98.9683 193.412 98.2676C194.114 97.567 195.065 97.1728 196.056 97.1717H221.499C222.491 97.1728 223.442 97.567 224.143 98.2676C224.845 98.9683 225.239 99.9182 225.24 100.909V173.414C225.239 174.405 224.845 175.355 224.143 176.056C223.442 176.756 222.491 177.15 221.499 177.151ZM196.056 98.6666C195.461 98.6673 194.891 98.9038 194.47 99.3241C194.049 99.7445 193.812 100.315 193.812 100.909V173.414C193.812 174.009 194.049 174.579 194.47 174.999C194.891 175.419 195.461 175.656 196.056 175.657H221.499C222.094 175.656 222.665 175.419 223.086 174.999C223.506 174.579 223.743 174.009 223.744 173.414V100.909C223.743 100.315 223.506 99.7445 223.086 99.3241C222.665 98.9038 222.094 98.6673 221.499 98.6666H196.056Z" fill="#3F3D56"/>
<path d="M139.402 196.617L110.682 207.397L114.63 217.893L143.35 207.113L139.402 196.617Z" fill="#6C63FF"/>
<path d="M152.299 230.903L123.58 241.683L127.528 252.178L156.248 241.398L152.299 230.903Z" fill="#6C63FF"/>
<path d="M134.803 266.761C134.042 266.759 133.3 266.527 132.674 266.093C132.049 265.66 131.57 265.047 131.302 264.336L105.77 196.465C105.422 195.537 105.457 194.509 105.867 193.607C106.277 192.704 107.028 192.001 107.956 191.652L131.773 182.712C132.233 182.54 132.722 182.459 133.213 182.475C133.704 182.492 134.188 182.604 134.635 182.807C135.082 183.01 135.486 183.299 135.821 183.657C136.157 184.016 136.419 184.437 136.591 184.896L162.124 252.768C162.471 253.695 162.437 254.723 162.027 255.626C161.617 256.528 160.866 257.231 159.938 257.581L136.121 266.52C135.7 266.679 135.253 266.761 134.803 266.761ZM133.09 183.967C132.82 183.967 132.552 184.016 132.299 184.112L108.483 193.051C107.926 193.261 107.475 193.683 107.229 194.224C106.983 194.766 106.962 195.382 107.171 195.939L132.703 263.81C132.807 264.086 132.964 264.339 133.165 264.554C133.367 264.769 133.609 264.942 133.877 265.064C134.146 265.185 134.436 265.253 134.73 265.263C135.025 265.273 135.319 265.224 135.594 265.121L159.411 256.181C159.968 255.971 160.419 255.55 160.665 255.008C160.911 254.467 160.931 253.85 160.723 253.293L135.19 185.422C135.029 184.995 134.742 184.627 134.367 184.368C133.992 184.108 133.547 183.968 133.09 183.967Z" fill="#3F3D56"/>
<path d="M36.1354 107.668L7.41553 118.448L11.3638 128.943L40.0837 118.163L36.1354 107.668Z" fill="#6C63FF"/>
<path d="M49.0333 141.953L20.3135 152.733L24.2618 163.229L52.9816 152.449L49.0333 141.953Z" fill="#6C63FF"/>
<path d="M31.5367 177.811C30.7758 177.81 30.0334 177.577 29.4081 177.144C28.7829 176.711 28.3044 176.098 28.0363 175.386L2.50388 107.515C2.15613 106.587 2.191 105.559 2.60083 104.657C3.01066 103.755 3.762 103.052 4.69006 102.702L28.5067 93.7628C28.9667 93.5901 29.4562 93.5096 29.9473 93.5259C30.4384 93.5422 30.9214 93.6549 31.3689 93.8577C31.8164 94.0606 32.2194 94.3494 32.5551 94.7079C32.8908 95.0663 33.1525 95.4873 33.3252 95.9468L58.8576 163.818C59.2054 164.746 59.1705 165.774 58.7607 166.676C58.3508 167.578 57.5995 168.281 56.6714 168.631L32.8548 177.571C32.4335 177.729 31.987 177.811 31.5367 177.811ZM29.8241 95.0176C29.5539 95.0179 29.286 95.0669 29.0331 95.1622L5.21667 104.102C4.65978 104.311 4.20893 104.733 3.96301 105.275C3.71709 105.816 3.69617 106.433 3.90485 106.99L29.4373 174.861C29.5409 175.137 29.698 175.389 29.8994 175.604C30.1008 175.819 30.3426 175.993 30.6111 176.114C30.8796 176.236 31.1694 176.304 31.4641 176.313C31.7587 176.323 32.0524 176.275 32.3284 176.171L56.1448 167.232C56.7017 167.022 57.1526 166.6 57.3985 166.059C57.6444 165.517 57.6653 164.901 57.4566 164.344L31.9242 96.4724C31.7633 96.0457 31.4763 95.678 31.1011 95.4181C30.726 95.1583 30.2806 95.0186 29.8241 95.0176Z" fill="#3F3D56"/>
<path d="M388.687 187.208C401.499 187.208 411.885 176.833 411.885 164.036C411.885 151.238 401.499 140.864 388.687 140.864C375.876 140.864 365.49 151.238 365.49 164.036C365.49 176.833 375.876 187.208 388.687 187.208Z" fill="#2F2E41"/>
<path d="M285.631 269.782C286.727 270.206 287.903 270.385 289.075 270.306C290.248 270.227 291.389 269.892 292.418 269.325C293.447 268.758 294.339 267.973 295.032 267.024C295.724 266.076 296.199 264.987 296.425 263.835L360.208 223.637L348.599 210.581L289.525 254.226C287.562 253.976 285.576 254.454 283.942 255.569C282.309 256.684 281.141 258.359 280.661 260.277C280.181 262.194 280.422 264.221 281.338 265.973C282.254 267.724 283.782 269.08 285.631 269.782Z" fill="#FFB8B8"/>
<path d="M346.891 234.324C346.327 234.325 345.771 234.184 345.275 233.915C344.779 233.645 344.359 233.256 344.053 232.782L336.667 221.316C336.201 220.592 336.03 219.718 336.19 218.872C336.35 218.026 336.828 217.274 337.526 216.77L362.243 198.926C363.442 198.06 364.803 197.443 366.245 197.111C367.687 196.78 369.181 196.741 370.639 196.997C372.096 197.252 373.488 197.797 374.731 198.599C375.974 199.401 377.043 200.444 377.876 201.667C378.708 202.889 379.286 204.265 379.577 205.715C379.867 207.164 379.864 208.657 379.566 210.105C379.269 211.553 378.684 212.927 377.846 214.145C377.008 215.364 375.933 216.402 374.687 217.198L348.699 233.795C348.159 234.141 347.532 234.324 346.891 234.324Z" fill="#2F2E41"/>
<path d="M357.928 434.51L348.754 434.509L344.389 399.162L357.93 399.163L357.928 434.51Z" fill="#FFB8B8"/>
<path d="M342.2 431.891H359.893V443.018H331.061C331.061 441.557 331.349 440.11 331.909 438.76C332.468 437.41 333.289 436.183 334.323 435.15C335.358 434.117 336.586 433.297 337.937 432.738C339.289 432.178 340.738 431.891 342.2 431.891Z" fill="#2F2E41"/>
<path d="M400.757 427.658L391.924 430.135L378.156 397.283L391.192 393.627L400.757 427.658Z" fill="#FFB8B8"/>
<path d="M384.906 429.383L401.94 424.607L404.951 435.32L377.191 443.104C376.796 441.697 376.682 440.226 376.856 438.775C377.029 437.324 377.488 435.922 378.204 434.648C378.92 433.374 379.881 432.253 381.031 431.35C382.181 430.446 383.498 429.778 384.906 429.383Z" fill="#2F2E41"/>
<path d="M425.474 373.413L389.858 331.427L411.47 305.233C411.787 304.848 412.185 304.539 412.636 304.328C413.087 304.116 413.58 304.007 414.078 304.008C414.577 304.01 415.068 304.122 415.518 304.336C415.968 304.551 416.364 304.862 416.679 305.248L449.381 345.338L425.474 373.413Z" fill="#6C63FF"/>
<path d="M391.295 331.74C391.82 330.796 392.471 329.927 393.23 329.158L413.859 308.268C414.667 307.446 415.756 306.957 416.909 306.901C419.266 306.789 423.132 307.027 424.209 309.61L396.359 332.372L391.295 331.74Z" fill="#F2F2F2"/>
<path d="M426.712 382.298C425.123 382.25 423.58 381.762 422.253 380.887L422.155 380.786L389.535 330.953L394.948 330.43L423.957 307.828C424.324 307.542 424.745 307.336 425.195 307.221C425.645 307.106 426.114 307.085 426.572 307.16C427.031 307.235 427.469 307.404 427.858 307.656C428.248 307.908 428.582 308.238 428.838 308.625L460.548 356.567C461.035 357.307 461.21 358.209 461.037 359.078C460.864 359.946 460.356 360.712 459.622 361.209L428.937 381.877C428.229 382.158 427.473 382.301 426.712 382.298Z" fill="#6C63FF"/>
<path d="M415.175 348.209C414.868 348.209 414.565 348.135 414.294 347.991C414.023 347.847 413.792 347.639 413.62 347.385L409.873 341.825C409.596 341.413 409.494 340.909 409.589 340.423C409.684 339.936 409.969 339.508 410.38 339.23L429.605 326.302C430.017 326.026 430.521 325.925 431.008 326.02C431.495 326.115 431.924 326.398 432.202 326.809L435.949 332.369C436.225 332.78 436.327 333.284 436.232 333.771C436.137 334.257 435.853 334.686 435.442 334.963L416.217 347.891C415.909 348.098 415.546 348.209 415.175 348.209Z" fill="#3F3D56"/>
<path d="M342.938 429.164C341.915 429.16 340.93 428.774 340.177 428.082C339.424 427.39 338.957 426.442 338.868 425.424C337.235 406.897 329.045 313.526 328.146 294.67C327.148 273.719 344.604 240.575 344.78 240.243L344.901 240.015L353.529 241.091V242.094L361.741 243.059L377.633 244.595L382.183 300.146L384.195 337.821L403.097 414.768C403.311 415.621 403.181 416.523 402.735 417.28C402.289 418.037 401.562 418.589 400.713 418.815L384.262 423.296C383.407 423.526 382.496 423.411 381.725 422.976C380.953 422.541 380.383 421.822 380.137 420.972L364.649 366.626C364.574 366.363 364.406 366.136 364.175 365.989C363.945 365.841 363.668 365.783 363.398 365.825C363.127 365.867 362.881 366.006 362.706 366.217C362.531 366.427 362.44 366.694 362.448 366.967L364.086 419.96C364.094 420.504 363.991 421.044 363.783 421.547C363.575 422.05 363.266 422.505 362.876 422.884C359.105 426.421 349.142 428.31 343.539 429.121C343.34 429.15 343.139 429.164 342.938 429.164Z" fill="#2F2E41"/>
<path d="M392.368 195.723C389.758 193.005 372.558 196.74 368.739 200.745L342.597 243.43L385.832 251.465L395.384 197.23L392.368 195.723Z" fill="#6C63FF"/>
<path d="M381.036 304.172C380.105 304.172 379.18 304.019 378.299 303.717C375.787 302.856 372.709 301.955 369.149 301.041C353.559 297.037 348.055 284.216 352.789 262.935L352.909 262.394C357.355 242.207 365.735 223.092 377.571 206.137L379.404 203.507C381.617 200.333 384.716 197.879 388.314 196.449C391.912 195.02 395.851 194.678 399.642 195.467C406.657 196.912 410.423 199.007 410.837 201.692C411.649 206.962 395.98 270.661 389.206 297.804C388.752 299.624 387.701 301.241 386.22 302.395C384.739 303.549 382.914 304.175 381.036 304.172Z" fill="#2F2E41"/>
<path d="M327.329 295.994C326.922 295.994 326.516 295.931 326.128 295.807L321.075 294.193C320.553 294.026 320.071 293.751 319.661 293.388C319.25 293.024 318.921 292.579 318.692 292.081C318.464 291.583 318.343 291.042 318.335 290.494C318.328 289.947 318.435 289.403 318.65 288.899L345.463 226.034C350.6 214.041 359.583 204.095 370.998 197.759C371.163 197.668 371.346 197.612 371.534 197.594C371.722 197.577 371.912 197.598 372.092 197.657C372.257 197.709 372.409 197.796 372.538 197.911C372.668 198.025 372.772 198.166 372.844 198.323C375.997 205.253 358.833 238.047 345.042 264.397C337.98 277.889 331.881 289.542 331.187 292.865C331.002 293.75 330.517 294.544 329.815 295.114C329.112 295.684 328.234 295.995 327.329 295.994Z" fill="#2F2E41"/>
<path d="M410.283 310.319C411.225 309.617 412.001 308.717 412.557 307.683C413.113 306.649 413.435 305.505 413.501 304.333C413.566 303.161 413.374 301.989 412.937 300.899C412.5 299.809 411.83 298.828 410.972 298.026L410.759 222.692L393.518 225.582L399.157 298.761C397.902 300.289 397.252 302.224 397.33 304.199C397.408 306.174 398.209 308.051 399.58 309.476C400.952 310.901 402.799 311.774 404.771 311.929C406.744 312.084 408.705 311.512 410.283 310.319Z" fill="#FFB8B8"/>
<path d="M396.245 241.382C395.391 241.382 394.568 241.057 393.944 240.474C393.321 239.89 392.942 239.092 392.886 238.24L390.881 207.843C390.691 204.919 391.671 202.038 393.604 199.834C395.538 197.63 398.268 196.282 401.196 196.085C402.699 195.986 404.206 196.195 405.626 196.698C407.045 197.202 408.347 197.989 409.451 199.013C410.555 200.036 411.438 201.274 412.047 202.651C412.655 204.027 412.976 205.513 412.99 207.018L413.262 237.828C413.268 238.718 412.922 239.575 412.299 240.21C411.675 240.846 410.825 241.21 409.934 241.222L396.286 241.382L396.245 241.382Z" fill="#2F2E41"/>
<path d="M383.909 188.386C394.06 188.386 402.288 180.167 402.288 170.027C402.288 159.888 394.06 151.669 383.909 151.669C373.758 151.669 365.53 159.888 365.53 170.027C365.53 180.167 373.758 188.386 383.909 188.386Z" fill="#FFB8B8"/>
<path d="M399.191 182.874C400.561 178.516 401.82 173.378 399.107 169.701C397.153 167.052 393.643 166.026 390.352 165.879C387.06 165.733 383.759 166.29 380.475 166.029C377.19 165.768 373.719 164.473 372.05 161.635C369.887 157.955 371.719 152.887 375.197 150.409C378.676 147.93 383.271 147.584 387.504 148.162C392.86 148.797 397.896 151.047 401.94 154.612C405.875 158.24 408.439 163.468 408.325 168.816C408.211 174.163 405.209 179.488 400.424 181.889" fill="#2F2E41"/>
<path d="M394.608 142.758C390.208 141.404 388.179 135.594 390.146 131.436C392.114 127.279 397.143 125.102 401.711 125.681C406.278 126.26 410.302 129.187 413.078 132.855C415.854 136.524 417.528 140.898 418.924 145.28C420.319 149.662 421.48 154.139 423.386 158.325C426.411 164.757 431.077 170.281 436.916 174.34C442.754 178.4 449.56 180.854 456.648 181.454C459.738 181.678 462.945 181.518 465.76 180.228C468.576 178.938 470.938 176.337 471.253 173.258C472.856 184.193 466.487 195.814 456.402 200.358C446.317 204.902 433.381 201.979 426.236 193.541C419.253 185.296 418.172 173.654 418.34 162.856C418.386 159.895 418.495 156.878 417.676 154.031C416.857 151.185 414.919 148.479 412.096 147.575C409.818 146.845 407.35 147.371 405.015 147.888C402.68 148.405 400.2 148.903 397.939 148.123C395.677 147.344 393.857 144.775 394.768 142.566" fill="#2F2E41"/>
<path d="M467.322 444.339H269.769C269.57 444.339 269.38 444.26 269.24 444.12C269.099 443.98 269.021 443.79 269.021 443.591C269.021 443.393 269.099 443.203 269.24 443.063C269.38 442.923 269.57 442.844 269.769 442.844H467.322C467.52 442.844 467.711 442.923 467.851 443.063C467.991 443.203 468.07 443.393 468.07 443.591C468.07 443.79 467.991 443.98 467.851 444.12C467.711 444.26 467.52 444.339 467.322 444.339Z" fill="#CCCCCC"/>
</g>
<defs>
<clipPath id="clip0_304_3">
<rect width="552" height="444" fill="white"/>
</clipPath>
</defs>
</svg>
