<svg width="676" height="431" viewBox="0 0 676 431" fill="none" xmlns="http://www.w3.org/2000/svg">
<g clip-path="url(#clip0_317_2)">
<path d="M143.446 101.498L169.013 136.412C169.013 136.412 190.81 145.582 216.286 163.994L210.188 173.517C210.188 173.517 168.138 156.292 157.377 149.014L137.728 118.196L143.446 101.498Z" fill="#A0616A"/>
<path d="M231.574 180.905C234.014 177.333 231.117 171.104 225.103 166.993C219.09 162.883 212.237 162.446 209.797 166.018C207.357 169.589 210.254 175.818 216.268 179.929C222.281 184.04 229.134 184.476 231.574 180.905Z" fill="#A0616A"/>
<path d="M130.95 71.6919L139.317 69.3177C139.317 69.3177 144.187 69.3271 146.935 74.1127C149.682 78.8983 169.136 121.568 168.214 123.221C167.292 124.874 166.005 125.239 167.657 126.162C169.31 127.084 170.823 126.617 169.696 127.999C168.57 129.381 170.127 132.418 170.127 132.418L148.664 148.259L130.95 71.6919Z" fill="#6C63FF"/>
<path d="M98.4889 422.558L108.696 422.557L113.552 383.169L98.4868 383.17L98.4889 422.558Z" fill="#A0616A"/>
<path d="M133.461 422.327C133.779 422.862 133.947 424.591 133.947 425.213C133.947 427.127 132.396 428.679 130.482 428.679H98.8711C97.5658 428.679 96.5076 427.621 96.5076 426.315V424.998C96.5076 424.998 94.9438 421.041 98.1634 416.164C98.1634 416.164 102.165 419.983 108.144 414.001L109.907 410.806L122.671 420.144L129.745 421.015C131.293 421.206 132.665 420.985 133.461 422.327Z" fill="#2F2E41"/>
<path d="M135.433 412.607L145.5 414.298L156.812 376.259L141.954 373.763L135.433 412.607Z" fill="#A0616A"/>
<path d="M169.96 418.175C170.185 418.756 170.064 420.488 169.961 421.102C169.644 422.99 167.857 424.263 165.97 423.946L134.796 418.706C133.509 418.49 132.641 417.271 132.857 415.983L133.075 414.684C133.075 414.684 132.188 410.523 136.171 406.247C136.171 406.247 139.485 410.676 146.372 405.768L148.64 402.909L159.68 414.234L166.513 416.266C168.007 416.71 169.397 416.72 169.96 418.175Z" fill="#2F2E41"/>
<path d="M156.358 210.5C156.358 210.5 170.072 226.563 170.072 241.286C170.072 256.01 170.406 302.263 170.406 302.263C170.406 302.263 162.378 374.469 160.371 380.492C158.365 386.516 157.361 396.555 157.361 396.555L137.96 391.87C137.96 391.87 135.284 323.94 143.312 307.878L123.912 252.998L117.222 408.267H94.7001C94.7001 408.267 83.1035 326.617 89.1244 305.201C89.1244 305.201 75.7446 223.551 79.0896 218.866C82.4345 214.181 156.358 210.5 156.358 210.5Z" fill="#2F2E41"/>
<path d="M106.518 50.5472L124.58 51.8857L130.601 61.9246C130.601 61.9246 144.65 67.948 146.657 76.6483C148.664 85.3487 149.333 187.076 149.333 187.076L159.368 201.8L158.699 214.516L78.4204 218.531V206.306L71.0615 191.761C71.0615 191.761 79.0894 75.3098 81.0963 74.6405C83.1033 73.9713 98.49 63.2631 98.49 63.2631L106.518 50.5472Z" fill="#6C63FF"/>
<path d="M114.693 48.0568C127.255 48.0568 137.438 37.8691 137.438 25.302C137.438 12.7348 127.255 2.54712 114.693 2.54712C102.131 2.54712 91.9473 12.7348 91.9473 25.302C91.9473 37.8691 102.131 48.0568 114.693 48.0568Z" fill="#A0616A"/>
<path d="M132.861 6.9995C131.704 3.71565 128.493 1.72341 125.013 1.80101C124.866 1.80426 124.718 1.8029 124.573 1.7969C122.82 1.72522 121.138 1.12644 119.42 0.775173C116.217 0.120436 112.84 0.339642 109.749 1.40288C108.789 1.73339 107.827 2.14899 106.811 2.14911C105.795 2.14925 104.688 1.5919 104.44 0.606204C104.381 1.49863 104.322 2.39101 104.264 3.2834C103.933 2.56112 103.603 1.8388 103.272 1.11648L102.61 3.99699L100.488 1.58962C100.678 2.65071 100.06 3.72016 99.2226 4.39856C98.3853 5.07699 97.3512 5.45226 96.36 5.87492C92.0819 7.69924 88.065 10.9292 86.8323 15.4153C86.0534 18.2495 86.4608 21.2576 86.8735 24.1678C87.2383 26.7406 87.6349 29.4023 89.0328 31.5924C89.9289 32.9964 91.2206 34.1777 91.7662 35.7516C92.2748 37.2186 92.0821 38.8981 92.8057 40.2718C93.5324 41.6516 95.0325 42.4322 96.5007 42.9565C97.9688 43.4809 99.5296 43.8517 100.794 44.7641C102.058 45.6765 103.526 48.3049 106.28 48.1634L107.169 46.4924C108.084 45.7469 104.699 46.338 104.664 45.1583C104.629 43.9786 108.736 43.2498 108.154 42.2232C107.261 40.6491 106.053 39.2792 105.047 37.7748C103.871 36.0156 102.945 33.9601 103.351 31.8129C103.509 30.9777 103.9 30.1887 104.495 29.5819C106.211 27.8328 108.124 28.6016 109.984 28.8518C111.265 29.0244 112.796 28.8252 113.461 27.7159C114.24 26.4182 113.372 24.7673 113.478 23.2576C113.591 21.6579 114.802 20.3461 116.121 19.4341C117.439 18.5221 118.936 17.8576 120.122 16.779C121.308 15.7002 122.153 14.015 121.636 12.497C127.258 10.1554 128.119 9.93388 134.04 11.3619C133.758 9.88076 133.362 8.42141 132.861 6.9995Z" fill="#2F2E41"/>
<path d="M36.8369 298.032V228.963C36.8369 227.069 37.644 225.256 39.0514 223.988C40.4587 222.721 42.3454 222.108 44.2291 222.307C61.6773 219.958 78.1106 221.075 93.0037 227.452C94.6907 227.452 96.0632 228.825 96.0632 230.512V299.822C96.0632 301.51 94.6907 302.883 93.0037 302.883C76.6098 299.037 59.3187 300.038 41.6862 302.883C39.0123 302.883 36.8369 300.707 36.8369 298.032Z" fill="#E6E6E6"/>
<path d="M36.8369 304.18V234.382C36.8369 230.691 39.8383 227.688 43.5276 227.688C60.2123 223.321 76.7047 223.313 93.0038 227.688C94.6907 227.688 96.0632 229.061 96.0632 230.749V299.349C96.0632 301.034 94.6948 302.406 93.0113 302.41C76.9401 299.613 59.7246 302.337 41.6862 309.032C39.0123 309.032 36.8369 306.855 36.8369 304.18Z" fill="#F2F2F2"/>
<path d="M75.3643 256.533H59.7627C54.1595 256.533 49.6011 251.973 49.6011 246.367C49.6011 240.762 54.1596 236.201 59.7627 236.201H75.3643C80.968 236.201 85.5265 240.762 85.5265 246.367C85.5265 251.973 80.968 256.533 75.3643 256.533Z" fill="#E6E6E6"/>
<path d="M89.6637 119.44L89.0674 155.476C89.0674 155.476 87.1614 183.56 82.428 215.165L71.1455 215.885C71.1455 215.885 72.5337 166.537 72.0279 153.553L72.8258 124.712L89.6637 119.44Z" fill="#A0616A"/>
<path d="M77.8525 237.502C82.1745 237.355 85.4776 231.332 85.2302 224.05C84.9828 216.768 81.2785 210.984 76.9565 211.131C72.6345 211.278 69.3314 217.3 69.5789 224.582C69.8263 231.864 73.5305 237.649 77.8525 237.502Z" fill="#A0616A"/>
<path d="M89.4885 73.562L80.7974 73.8786C80.7974 73.8786 76.1663 75.3868 75.024 80.786C73.8817 86.1853 65.8745 142.062 67.2602 143.351C68.646 144.64 69.9831 144.592 68.6947 145.978C67.4063 147.364 65.8231 147.385 67.3198 148.353C68.8165 149.322 68.2697 152.69 68.2697 152.69L92.3071 150.987L89.4885 73.562Z" fill="#6C63FF"/>
<path d="M662.905 395.516H431.664C430.322 395.516 428.994 395.311 427.715 394.907L427.579 394.852C355.172 358.852 293.092 339.205 237.792 334.784L237.582 334.743C232.111 333.011 228.436 327.992 228.436 322.252V13.112C228.436 8.89073 230.389 5.03871 233.792 2.5441C237.196 0.0494905 241.456 -0.6505 245.481 0.621321L428.286 58.4669C429.381 58.8135 430.517 58.9888 431.664 58.9888H662.905C670.126 58.9888 676 64.8659 676 72.0892V382.416C676 389.64 670.126 395.516 662.905 395.516ZM428.354 393.122C429.427 393.453 430.54 393.621 431.664 393.621H662.905C669.081 393.621 674.106 388.595 674.106 382.416V72.0892C674.106 65.9105 669.081 60.8838 662.905 60.8838H431.664C430.323 60.8838 428.995 60.6789 427.715 60.2741L244.909 2.42844C241.467 1.33843 237.824 1.93895 234.912 4.07269C232 6.2069 230.33 9.50143 230.33 13.112V322.252C230.33 327.127 233.429 331.393 238.053 332.904C293.553 337.36 355.804 357.058 428.354 393.122Z" fill="#3F3D56"/>
<path d="M437.839 381.478C500.888 359.158 571.227 361.72 645.951 379.253C655.332 381.454 664.326 374.387 664.326 364.748V82.283C664.326 75.4237 659.651 69.4263 652.991 67.7969C574.163 48.5127 500.534 44.9647 435.647 67.8799C430.893 69.5586 425.616 68.6491 421.605 65.5944C366.927 23.9551 310.967 3.07748 253.336 9.27656C245.797 10.0875 240.11 16.5152 240.11 24.101V309.647C240.11 317.292 245.893 323.685 253.494 324.476C315.525 330.93 372.525 350.49 425.534 380.445C429.287 382.566 433.775 382.917 437.839 381.478Z" fill="#F2F2F2"/>
<path d="M435.814 365.638C431.52 365.638 427.291 364.458 423.564 362.143C379.045 334.483 330.543 318.324 279.405 314.116C267.416 313.129 258.024 302.898 258.024 290.825V46.9224C258.024 34.404 267.729 24.1466 280.118 23.5706C317.349 21.8338 362.557 38.4444 422.38 75.826C427.44 78.9873 433.594 79.926 439.263 78.4049C496.118 63.1374 557.747 62.6914 627.676 77.0414C638.532 79.2696 646.412 88.9093 646.412 99.9634V338.035C646.412 345.219 643.182 351.892 637.55 356.342C631.877 360.825 624.577 362.432 617.521 360.752C551.369 345.001 494.564 346.139 443.858 364.234C441.225 365.174 438.506 365.638 435.814 365.638ZM285.433 25.3435C283.67 25.3435 281.932 25.3833 280.205 25.4638C268.83 25.9926 259.919 35.4182 259.919 46.9224V290.825C259.919 301.92 268.546 311.321 279.56 312.226C331 316.461 379.786 332.713 424.563 360.533C430.134 363.995 436.935 364.693 443.222 362.45C494.282 344.227 551.439 343.069 617.959 358.909C624.448 360.453 631.16 358.977 636.376 354.855C641.55 350.766 644.518 344.636 644.518 338.035V99.9634C644.518 89.805 637.275 80.9457 627.295 78.8976C557.661 64.6072 496.317 65.0449 439.755 80.2351C433.578 81.8923 426.881 80.8722 421.376 77.4333C364.684 42.0077 321.27 25.3435 285.433 25.3435Z" fill="white"/>
<path d="M431.513 79.8201L429.619 79.8376L432.254 365.205L434.148 365.187L431.513 79.8201Z" fill="white"/>
<path d="M276.49 60.988L275.896 62.7867L408.524 106.689L409.119 104.89L276.49 60.988Z" fill="#3F3D56"/>
<path d="M276.49 96.11L275.896 97.9088L408.524 141.811L409.119 140.012L276.49 96.11Z" fill="#3F3D56"/>
<path d="M276.49 131.232L275.896 133.03L408.524 176.933L409.119 175.134L276.49 131.232Z" fill="#3F3D56"/>
<path d="M276.49 166.353L275.896 168.152L408.524 212.054L409.119 210.256L276.49 166.353Z" fill="#3F3D56"/>
<path d="M622.392 106.794H463.433V108.689H622.392V106.794Z" fill="#3F3D56"/>
<path d="M622.392 139.964H463.433V141.859H622.392V139.964Z" fill="#3F3D56"/>
<path d="M622.392 173.134H463.433V175.029H622.392V173.134Z" fill="#3F3D56"/>
<path d="M622.392 206.305H463.433V208.2H622.392V206.305Z" fill="#3F3D56"/>
<path d="M622.392 239.476H463.433V241.371H622.392V239.476Z" fill="#3F3D56"/>
<path d="M622.392 272.647H463.433V274.542H622.392V272.647Z" fill="#3F3D56"/>
<path d="M51.3897 414.577C49.433 414.699 48.3516 412.267 49.832 410.85L49.9793 410.264C49.9599 410.217 49.9404 410.17 49.9208 410.124C47.942 405.403 41.2357 405.436 39.2738 410.163C37.5324 414.359 35.3154 418.562 34.7695 422.998C34.5248 424.956 34.6349 426.951 35.0692 428.873C30.989 419.956 28.8418 410.22 28.8418 400.428C28.8418 397.968 28.9764 395.508 29.2517 393.054C29.478 391.046 29.79 389.051 30.1938 387.075C32.3776 376.389 37.1063 366.212 43.9271 357.712C47.206 355.919 49.9405 353.116 51.5921 349.756C52.1855 348.544 52.6504 347.241 52.8707 345.913C52.4975 345.962 51.4637 340.276 51.7451 339.928C51.2251 339.138 50.2943 338.746 49.7264 337.975C46.9017 334.144 43.0101 334.813 40.9786 340.019C36.6386 342.211 36.5966 345.845 39.2596 349.34C40.9538 351.563 41.1865 354.572 42.6731 356.953C42.5201 357.149 42.3611 357.338 42.2081 357.534C39.4037 361.133 36.9781 365.001 34.9333 369.064C35.5112 364.548 34.658 359.108 33.2034 355.6C31.5477 351.605 28.4442 348.239 25.7113 344.785C22.4285 340.635 15.697 342.446 15.1187 347.706C15.1131 347.757 15.1076 347.808 15.1023 347.859C15.5082 348.088 15.9059 348.331 16.2944 348.588C18.5101 350.054 17.7444 353.491 15.1189 353.896L15.0595 353.905C15.2063 355.368 15.4571 356.818 15.8241 358.244C12.3181 371.809 19.8874 376.749 30.6953 376.971C30.9339 377.093 31.1664 377.216 31.405 377.332C30.3099 380.416 29.4351 383.58 28.7867 386.787C28.2056 389.621 27.8018 392.485 27.5755 395.361C27.2941 398.99 27.3186 402.637 27.6245 406.26L27.6061 406.132C26.8292 402.142 24.6637 398.415 21.5193 395.832C16.8352 391.983 10.2175 390.565 5.1642 387.471C2.73168 385.982 -0.385408 387.906 0.0391298 390.728L0.0597959 390.863C0.812217 391.169 1.54627 391.524 2.25589 391.922C2.66183 392.151 3.05951 392.394 3.44798 392.651C5.66376 394.117 4.89798 397.553 2.27254 397.959L2.21304 397.968C2.17023 397.974 2.13351 397.98 2.09075 397.986C3.38151 401.052 5.17996 403.898 7.43113 406.352C9.62337 418.193 19.0391 419.317 29.1109 415.868H29.1171C30.2182 420.666 31.8271 425.354 33.8947 429.822H50.962C51.0232 429.632 51.0783 429.436 51.1334 429.246C49.5551 429.344 47.9646 429.253 46.4107 428.965C47.677 427.41 48.9433 425.844 50.2096 424.289C50.2402 424.259 50.2647 424.228 50.2891 424.198C50.9314 423.402 51.5799 422.613 52.2222 421.817L52.2225 421.816C52.2627 419.374 51.9696 416.939 51.3897 414.577Z" fill="#F2F2F2"/>
<path d="M242.283 429.872C242.283 430.498 241.781 431 241.156 431H1.25989C0.634815 431 0.132812 430.498 0.132812 429.872C0.132812 429.247 0.634815 428.745 1.25989 428.745H241.156C241.781 428.745 242.283 429.247 242.283 429.872Z" fill="#CCCCCC"/>
<path d="M629.068 369.934C641.099 369.934 650.852 360.177 650.852 348.141C650.852 336.105 641.099 326.348 629.068 326.348C617.037 326.348 607.284 336.105 607.284 348.141C607.284 360.177 617.037 369.934 629.068 369.934Z" fill="#6C63FF"/>
<path d="M639.269 347.32L625.753 339.513C625.121 339.148 624.332 339.604 624.332 340.333V347.194H620.278C619.755 347.194 619.331 347.618 619.331 348.141C619.331 348.664 619.755 349.089 620.278 349.089H624.332V355.949C624.332 356.678 625.121 357.134 625.753 356.769L639.269 348.962C639.9 348.597 639.9 347.685 639.269 347.32Z" fill="white"/>
<path d="M318.865 286.711C319.714 277 323.744 267.722 330.195 260.421C336.478 253.309 345.067 248.43 354.329 246.443C359.499 245.333 364.855 245.117 370.091 245.864C371.344 246.043 371.311 248.034 370.044 247.853C361.133 246.581 351.922 248.135 343.915 252.252C335.707 256.471 329.138 263.334 325.08 271.61C322.76 276.342 321.312 281.507 320.854 286.758C320.743 288.029 318.754 287.99 318.865 286.711Z" fill="white"/>
<path d="M367.886 237.879L383.194 245.434C383.751 245.709 383.842 246.616 383.369 247.008L368.878 258.991C367.897 259.802 366.517 258.369 367.505 257.552L381.996 245.568L382.172 247.141L366.864 239.586C365.714 239.019 366.746 237.316 367.886 237.879Z" fill="white"/>
</g>
<defs>
<clipPath id="clip0_317_2">
<rect width="676" height="431" fill="white"/>
</clipPath>
</defs>
</svg>
